<?xml version="1.0" encoding="UTF-8" standalone="no"?>
<svg
   version="1.2"
   viewBox="570.81543 -222.28108 1019.7655 349.94965"
   width="1020.5234"
   height="350.25711"
   id="svg1"
   sodipodi:docname="bank.svg"
   xmlns:inkscape="http://www.inkscape.org/namespaces/inkscape"
   xmlns:sodipodi="http://sodipodi.sourceforge.net/DTD/sodipodi-0.dtd"
   xmlns="http://www.w3.org/2000/svg"
   xmlns:svg="http://www.w3.org/2000/svg">
  <defs
     id="defs1" />
  <sodipodi:namedview
     id="namedview1"
     pagecolor="#ffffff"
     bordercolor="#000000"
     borderopacity="0.25"
     inkscape:showpageshadow="2"
     inkscape:pageopacity="0.0"
     inkscape:pagecheckerboard="0"
     inkscape:deskcolor="#d1d1d1"
     showgrid="false" />
  <style
     id="style1">
		.s0 { fill: #b6dcfe;stroke: #b6dcfe;stroke-width: 5 } 
		.s1 { fill: #ededed;stroke: #ededed;stroke-miterlimit:4.1;stroke-width: 5 } 
		.s2 { fill: #ededed } 
		.s3 { fill: #b6dcfe } 
	</style>
  <g
     id="layer1"
     transform="translate(-18.419073,-217.80776)">
    <path
       id="Hug   Bank"
       class="s2"
       aria-label="Hug   Bank"
       d="m 1168.9719,163.4 c -3,0 -5.3,-0.4 -6.9,-1.2 -1.4667,-0.93333 -2.4334,-2.2 -2.9,-3.8 -0.4667,-1.8 -0.7,-3.8 -0.7,-6 V 6.7 c 0,-2.2666667 0.2333,-4.2 0.7,-5.8 0.4666,-1.6 1.5,-2.8 3.1,-3.6 1.6,-0.9333333 3.9333,-1.4 7,-1.4 3.2,0 5.5,0.4666667 6.9,1.4 1.6,0.8 2.6333,2 3.1,3.6 0.5333,1.6 0.8,3.6 0.8,6 v 145.7 c 0,2.26667 -0.3334,4.2 -1,5.8 -0.4667,1.6 -1.5,2.86667 -3.1,3.8 -1.4667,0.8 -3.8,1.2 -7,1.2 z m -115.9941,0 c -3.2,0 -5.6,-0.4 -7.2,-1.2 -1.4,-0.93333 -2.3667,-2.2 -2.9,-3.8 -0.4667,-1.8 -0.7,-3.8 -0.7,-6 V 6.7 c 0,-2.2666667 0.2333,-4.2 0.7,-5.8 0.6667,-1.6 1.7333,-2.8 3.2,-3.6 1.6,-0.9333333 4,-1.4 7.2,-1.4 3,0 5.2333,0.4666667 6.7,1.4 1.6,0.8 2.6333,2 3.1,3.6 0.4667,1.6 0.7,3.6 0.7,6 v 145.7 c 0,2.26667 -0.2333,4.2 -0.7,5.8 -0.4667,1.6 -1.5,2.86667 -3.1,3.8 -1.6,0.8 -3.9333,1.2 -7,1.2 z M 1162.0719,87.6 H 1053.9778 V 67.4 h 108.2941 z m 88.8059,76.1 c -7,0 -13.5333,-1.3 -19.6,-3.9 -5.9333,-2.53333 -11.1333,-6.13333 -15.6,-10.8 -4.5333,-4.6 -8.0667,-10.2 -10.6,-16.8 -2.4,-6.53333 -3.6,-13.96667 -3.6,-22.3 V 57.8 c 0,-2.2 0.2333,-4.1 0.7,-5.7 0.4667,-1.6 1.4333,-2.8 2.9,-3.6 1.6,-1 3.9333,-1.5 7,-1.5 3,0 5.2333,0.5 6.7,1.5 1.6,0.933333 2.6333,2.2 3.1,3.8 0.4667,1.6 0.7,3.533333 0.7,5.8 v 52.1 c 0,6.53333 1.1333,12.36667 3.4,17.5 2.2,4.93333 5.5667,8.76667 10.1,11.5 4.6,2.73333 10.2,4.1 16.8,4.1 6.6667,0 12.4,-1.36667 17.2,-4.1 5,-2.73333 8.7667,-6.56667 11.3,-11.5 2.7333,-5.13333 4.1,-10.96667 4.1,-17.5 V 57.8 c 0,-2.2 0.2333,-4.1 0.7,-5.7 0.4667,-1.6 1.4333,-2.8 2.9,-3.6 1.6,-1 3.9333,-1.5 7,-1.5 3,0 5.2333,0.5 6.7,1.5 1.6,0.933333 2.5667,2.2 2.9,3.8 0.4667,1.6 0.7,3.533333 0.7,5.8 v 95.3 c 0,1.86667 -0.2333,3.6 -0.7,5.2 -0.3333,1.46667 -1.3,2.6 -2.9,3.4 -1.4667,0.8 -3.7,1.2 -6.7,1.2 -2.2667,0 -4.1333,-0.23333 -5.6,-0.7 -1.2667,-0.46667 -2.2,-1.1 -2.8,-1.9 -0.6667,-0.8 -1.1667,-1.7 -1.5,-2.7 -0.1333,-1.13333 -0.2,-2.23333 -0.2,-3.3 l 0.9,-10.4 c -1.6,1.93333 -3.5,4.03333 -5.7,6.3 -2.2667,2.2 -4.9,4.36667 -7.9,6.5 -2.9333,1.86667 -6.2333,3.46667 -9.9,4.8 -3.6667,1.26667 -7.8333,1.9 -12.5,1.9 z m 132.9,46.8 c -5.6,0 -10.9667,-0.63333 -16.1,-1.9 -5.0667,-1.33333 -9.5333,-3.03333 -13.4,-5.1 -3.8667,-2.06667 -6.9,-4.3 -9.1,-6.7 -2.2667,-2.4 -3.4,-4.63333 -3.4,-6.7 0,-1.6 0.2333,-2.9 0.7,-3.9 0.5333,-1.06667 1.2667,-2.16667 2.2,-3.3 1.6,-1.6 2.8667,-2.73333 3.8,-3.4 1,-0.6 2.3,-0.9 3.9,-0.9 1.6,0 3.2,0.7 4.8,2.1 1.6,1.26667 3.5,2.8 5.7,4.6 2.4,1.6 5.3,3.1 8.7,4.5 3.5333,1.33333 7.8333,2 12.9,2 5.3333,0 10.0667,-0.8 14.2,-2.4 4.1333,-1.6 7.7333,-4 10.8,-7.2 3.0667,-3.2 5.4,-7.06667 7,-11.6 1.6,-4.6 2.4,-9.8 2.4,-15.6 l -0.5,-99.8 c 0.1333,-3.066667 1,-5.233333 2.6,-6.5 1.8,-1.266667 4.5333,-1.9 8.2,-1.9 3,0 5.1667,0.466667 6.5,1.4 1.4,0.8 2.2667,2 2.6,3.6 0.4667,1.466667 0.7,3.333333 0.7,5.6 v 99.3 c 0,8.46667 -1.3667,16.06667 -4.1,22.8 -2.6667,6.6 -6.5,12.2 -11.5,16.8 -4.9333,4.66667 -10.7667,8.2 -17.5,10.6 -6.7333,2.4 -14.1,3.6 -22.1,3.6 z m -0.7,-49.7 c -7.6667,0 -14.8,-1.36667 -21.4,-4.1 -6.4,-2.86667 -12.0667,-6.86667 -17,-12 -4.8,-5.13333 -8.5667,-11.13333 -11.3,-18 -2.5333,-6.86667 -3.8,-14.36667 -3.8,-22.5 0,-8.2 1.2667,-15.733333 3.8,-22.6 2.7333,-6.866667 6.5,-12.866667 11.3,-18 4.8,-5.133333 10.4,-9.066667 16.8,-11.8 6.5333,-2.866667 13.6667,-4.3 21.4,-4.3 7,0 13.4,1.366667 19.2,4.1 5.7333,2.733333 10.6,6.666667 14.6,11.8 4.1333,4.933333 7.2667,10.833333 9.4,17.7 2.0667,6.866667 3.1,14.566667 3.1,23.1 0,11.46667 -1.8333,21.46667 -5.5,30 -3.7333,8.46667 -9.0333,15 -15.9,19.6 -6.8667,4.66667 -15.1,7 -24.7,7 z m 1.2,-19.7 c 6.4,0 12.1667,-1.6 17.3,-4.8 5.1333,-3.2 9.2,-7.6 12.2,-13.2 3.0667,-5.6 4.6,-12.06667 4.6,-19.4 0,-7.2 -1.5333,-13.533333 -4.6,-19 -3,-5.6 -7.1667,-9.9 -12.5,-12.9 -5.0667,-3.066667 -10.9,-4.6 -17.5,-4.6 -6.5333,0 -12.3667,1.533333 -17.5,4.6 -5.1333,3 -9.1333,7.3 -12,12.9 -2.7333,5.466667 -4.1,11.866667 -4.1,19.2 0,7.4 1.4333,13.9 4.3,19.5 2.9333,5.4 6.9333,9.7 12,12.9 5.1333,3.2 11.0667,4.8 17.8,4.8 z"
       inkscape:export-filename="bank.svg"
       inkscape:export-xdpi="96"
       inkscape:export-ydpi="96"
       sodipodi:nodetypes="sccssscsccssccssccssccscsssscscccccscccssscscsssccsccssscsccssccsccccccccsscscscccscccsssccccsccssccssscccscscscccsccssscsccsccsccs" />
    <path
       id="path1"
       class="s3"
       aria-label="Hug   Bank"
       d="M 1131.3926,343.4 H 1051.8 c -2.9333,0 -5.2,-0.46667 -6.8,-1.4 -1.4,-1.13333 -2.3333,-2.66667 -2.8,-4.6 -0.5333,-2.06667 -0.8,-4.3 -0.8,-6.7 V 188.1 c 0,-2.4 0.2667,-4.46667 0.8,-6.2 0.6,-1.93333 1.6333,-3.36667 3.1,-4.3 1.6,-1.13333 3.8333,-1.7 6.7,-1.7 h 76.9926 c 8.9333,0 16.7667,2 23.5,6 6.8667,4 12.2333,9.43333 16.1,16.3 3.8,6.86667 5.6333,14.4 5.5,22.6 0.1333,4.13333 -0.3667,8.2 -1.5,12.2 -1.0667,4 -2.7333,7.76667 -5,11.3 -2.0667,3.33333 -4.7,6.13333 -7.9,8.4 4.3333,2.73333 8,6.23333 11,10.5 3.0667,4.33333 5.4,9.13333 7,14.4 1.6,5.33333 2.4,10.86667 2.4,16.6 -0.2,6.86667 -1.5,13.33333 -3.9,19.4 -2.4,5.93333 -5.8333,11.13333 -10.3,15.6 -4.4667,4.53333 -9.6667,8.06667 -15.6,10.6 -5.9333,2.4 -12.2333,3.6 -18.9,3.6 z M 1063,196.8 v 126 h 65.9926 c 6.2,0 11.5333,-1.2 16,-3.6 4.5333,-2.4 8,-5.93333 10.4,-10.6 2.4,-4.66667 3.6,-10.33333 3.6,-17 0,-5.8 -0.8,-10.46667 -2.4,-14 -1.6,-3.46667 -3.7667,-6.1 -6.5,-7.9 -2.7333,-1.93333 -5.7,-3.3 -8.9,-4.1 -3.0667,-0.8 -6.1,-1.2 -9.1,-1.2 -2.8667,-0.13333 -5.5,-0.2 -7.9,-0.2 h -64.6629 c -3.2,0 -5.5,-0.8 -6.9,-2.4 -1.4667,-1.6 -2.2,-4.16667 -2.2,-7.7 0,-3.33333 0.7333,-5.73333 2.2,-7.2 1.6,-1.4 4,-2.1 7.2,-2.1 h 64.5629 c 2.5333,0 5.4,-0.1 8.6,-0.3 3.2,-0.13333 6.3333,-0.76667 9.4,-1.9 3.2,-1.13333 5.7667,-3.2 7.7,-6.2 2.0667,-3.2 3.1,-7.7 3.1,-13.5 0,-8.93333 -2.4,-15.5 -7.2,-19.7 -4.8,-4.26667 -12.7333,-6.4 -23.8,-6.4 z m 228,146.4 c -3.5333,0 -6.1,-0.73333 -7.7,-2.2 -1.4,-1.46667 -2.2667,-3.7 -2.6,-6.7 l 0.9,-12 c -1.6,2.53333 -4.0667,5.5 -7.4,8.9 -3.3333,3.2 -7.7333,6.06667 -13.2,8.6 -5.4667,2.4 -12.1,3.6 -19.9,3.6 -7.6667,0 -14.8667,-1.53333 -21.6,-4.6 -6.6,-3 -12.4333,-7.23333 -17.5,-12.7 -5,-5.4 -8.9333,-11.63333 -11.8,-18.7 -2.7333,-7.06667 -4.1,-14.6 -4.1,-22.6 0,-7.8 1.3667,-15.13333 4.1,-22 2.8667,-7.06667 6.8667,-13.23333 12,-18.5 5.1333,-5.26667 10.9667,-9.43333 17.5,-12.5 6.7333,-3.06667 13.8667,-4.6 21.4,-4.6 7,0 13,0.96667 18,2.9 4.9333,1.8 9.1667,4.2 12.7,7.2 3.6667,2.86667 6.8667,6.16667 9.6,9.9 l -0.5,-10.1 c -0.1333,-3.53333 0.6,-6.03333 2.2,-7.5 1.7333,-1.6 4.4333,-2.4 8.1,-2.4 3.0667,0 5.2333,0.5 6.5,1.5 1.4667,0.93333 2.4333,2.3 2.9,4.1 0.4667,1.73333 0.7,3.86667 0.7,6.4 v 92.7 c 0,2.2 -0.2333,4.2 -0.7,6 -0.4667,1.73333 -1.4333,3.1 -2.9,4.1 -1.4,0.8 -3.6333,1.2 -6.7,1.2 z m -46.3,-20 c 6.4,0 12.2333,-1.66667 17.5,-5 5.4667,-3.33333 9.7,-7.8 12.7,-13.4 3.2,-5.8 4.8,-12.36667 4.8,-19.7 0,-7.53333 -1.6667,-14.1 -5,-19.7 -3.2,-5.73333 -7.5333,-10.2 -13,-13.4 -5.2667,-3.4 -11.1,-5.1 -17.5,-5.1 -7.5333,0 -14.1,1.76667 -19.7,5.3 -5.4,3.33333 -9.7,7.9 -12.9,13.7 -3.2,5.73333 -4.8,12.3 -4.8,19.7 0,7.2 1.6,13.66667 4.8,19.4 3.2,5.6 7.6,10.06667 13.2,13.4 5.7333,3.2 12.3667,4.8 19.9,4.8 z m 96,20 c -3.0667,0 -5.4,-0.4 -7,-1.2 -1.4,-1 -2.3667,-2.3 -2.9,-3.9 -0.2667,-1.6 -0.4,-3.5 -0.4,-5.7 v -95.3 c 0,-2.06667 0.2333,-3.83333 0.7,-5.3 0.4667,-1.46667 1.4333,-2.6 2.9,-3.4 1.6,-0.8 3.9,-1.2 6.9,-1.2 2.4,0 4.2333,0.33333 5.5,1 1.4667,0.46667 2.4333,1.2 2.9,2.2 0.6667,0.93333 1.0667,1.96667 1.2,3.1 0.2,1.13333 0.3,2.16667 0.3,3.1 l -0.5,11 c 1.6,-2.66667 3.6,-5.2 6,-7.6 2.4,-2.6 5.2,-4.86667 8.4,-6.8 3.2,-2.06667 6.6333,-3.66667 10.3,-4.8 3.8667,-1.06667 7.9333,-1.6 12.2,-1.6 7.0667,0 13.5667,1.26667 19.5,3.8 5.9333,2.4 10.9667,6 15.1,10.8 4.3333,4.66667 7.6,10.26667 9.8,16.8 2.4,6.53333 3.6,13.96667 3.6,22.3 v 52.1 c 0,2.26667 -0.2333,4.2 -0.7,5.8 -0.3333,1.6 -1.3,2.8 -2.9,3.6 -1.4,0.8 -3.6333,1.2 -6.7,1.2 -3.2,0 -5.6,-0.4 -7.2,-1.2 -1.4,-1 -2.3667,-2.3 -2.9,-3.9 -0.4667,-1.6 -0.7,-3.5 -0.7,-5.7 v -52.1 c 0,-6.73333 -1.1,-12.56667 -3.3,-17.5 -2.2667,-5 -5.6333,-8.86667 -10.1,-11.6 -4.4667,-2.86667 -10.1667,-4.3 -17.1,-4.3 -6.5333,0 -12.2667,1.43333 -17.2,4.3 -4.8,2.73333 -8.5667,6.6 -11.3,11.6 -2.6,4.93333 -3.9,10.76667 -3.9,17.5 v 52.3 c 0,2.26667 -0.2333,4.2 -0.7,5.8 -0.4667,1.6 -1.5,2.8 -3.1,3.6 -1.4667,0.8 -3.7,1.2 -6.7,1.2 z m 160.4,-59.8 52.3,41.3 c 3.0667,2.4 4.6667,4.7 4.8,6.9 0.3333,2.26667 -0.8,4.93333 -3.4,8 -1.8667,2.2 -3.6,3.7 -5.2,4.5 -1.4667,0.66667 -3,0.76667 -4.6,0.3 -1.6,-0.66667 -3.4333,-1.86667 -5.5,-3.6 l -54.3,-44.2 v 36 c 0,2.26667 -0.3,4.2 -0.9,5.8 -0.4667,1.6 -1.4333,2.86667 -2.9,3.8 -1.4667,0.8 -3.8,1.2 -7,1.2 -2.8667,0 -5.1,-0.4 -6.7,-1.2 -1.6,-0.93333 -2.6333,-2.2 -3.1,-3.8 -0.3333,-1.8 -0.5,-3.8 -0.5,-6 V 184.3 c 0,-2.26667 0.2333,-4.2 0.7,-5.8 0.5333,-1.6 1.6,-2.8 3.2,-3.6 1.6,-0.93333 3.8333,-1.4 6.7,-1.4 3.2,0 5.5,0.46667 6.9,1.4 1.4667,0.8 2.4333,2.1 2.9,3.9 0.4667,1.6 0.7,3.5 0.7,5.7 v 85 l 39.6,-37.9 c 1.8,-1.8 3.5,-3 5.1,-3.6 1.7333,-0.8 3.4,-0.96667 5,-0.5 1.8,0.46667 3.5667,1.73333 5.3,3.8 2.8667,3.2 4.2333,5.93333 4.1,8.2 0,2.06667 -1.4333,4.46667 -4.3,7.2 z"
       sodipodi:nodetypes="ssccssccssccccccccccccsccscssccccsscscsscccscscscccccscccscscscccccsccssccssccsccsccsccssccssscsccccccccscccssccsccssccsccssscsccccccccsccsccssccsccscccccccc" />
    <path
       id="!"
       class="s3"
       aria-label="!"
       d="m 1590.5,255.1 q -5.5,0 -9,-1 -3,-1.5 -4.5,-4.5 -1,-3.5 -1,-9 V 11.7 q 0,-5.5 1,-8.5 1.5,-3.5 4.5,-5 3.5,-1.5 8.5,-1.5 5.5,0 8.5,1.5 3.5,1 4.5,4.5 1.5,3 1.5,8.5 v 228.4 q 0,5.5 -1.5,9 -1,3.5 -4,5 -3,1.5 -8.5,1.5 z m 0,90.4 q -11,0 -15,-4 -4,-4 -4,-14.5 0,-7.5 1.5,-11.5 2,-4.5 6,-6.5 4,-2 11,-2 11,0 15,4.5 4,4 4,14 0,7.5 -2,12 -1.5,4 -5.5,6 -4,2 -11,2 z"
       inkscape:export-filename="text.svg"
       inkscape:export-xdpi="96"
       inkscape:export-ydpi="96" />
    <path
       id="path3"
       class="s0"
       d="m 781.88,254.61 m 47.24,14.36 c 0.19,-0.04 3.42,12.35 3.61,12.31 0.75,-4.02 7.71,-6.54 80.39,-42.98 56.76,-28.47 75.62,-38.4 76.04,-40.02 0.36,-1.42 -8.04,-19.85 -24.54,-53.86 -30.41,-62.67 -27.39,-56.96 -30.3,-57.38 -1.52,-0.22 -31.49,13.99 -81.01,38.39 -117.05,57.67 -116.96,57.62 -117.3,60.08 -0.16,1.17 4.78,12.85 10.99,25.95 6.21,13.11 11.14,24.63 10.96,25.6 M 929.44,101.14 q 0.34,-0.02 0.67,0.11 c 1.34,0.54 2.74,3.2 6.6,11.39 3.14,6.64 13.2,27.39 22.36,46.11 9.17,18.71 16.66,34.43 16.66,34.93 0,0.49 -32.43,16.97 -72.06,36.62 -39.64,19.65 -72.91,35.72 -73.95,35.72 -2.5,0 -3.29,-0.93 -3.29,-3.87 0,-2.18 6.64,-5.74 59.41,-31.85 32.68,-16.17 59.72,-29.9 60.09,-30.5 0.38,-0.6 0.46,-3.41 0.19,-6.24 -0.66,-6.83 1.27,-12.24 6.33,-17.72 4.16,-4.52 4.16,-4.52 -5.82,-24.62 -9.99,-20.1 -9.99,-20.1 -18.44,-20.65 -9.21,-0.59 -14.28,-2.65 -17.09,-6.94 -0.95,-1.46 -2.37,-2.65 -3.15,-2.65 -1.34,0 -75.03,35.64 -112.17,54.25 -17.31,8.67 -17.31,8.67 -16.65,15.03 0.58,5.54 0.29,7.11 -2.23,12.27 -1.59,3.25 -3.82,6.41 -4.94,7.02 -2.9,1.54 -2.59,4 1.68,13.36 2.05,4.5 3.73,8.61 3.73,9.12 0,0.51 -1.69,0.93 -3.75,0.93 -3.74,0 -3.74,0 -13.86,-20.96 -5.57,-11.52 -10.12,-21.39 -10.12,-21.92 0,-0.53 20.52,-11.07 45.59,-23.43 25.08,-12.35 64.85,-31.95 88.38,-43.55 23.53,-11.59 43.82,-21.41 45.09,-21.81 q 0.39,-0.13 0.74,-0.15 z m -8.7,53.97 c 7.04,0 10.78,8.92 5.67,13.52 -4.53,4.07 -9.14,3.89 -12.59,-0.51 -4.27,-5.42 -0.23,-13.01 6.92,-13.01 z m -60.91,1.3 q 1.67,-0.05 3.39,0.07 c 4.17,0.28 9.69,1.48 12.5,2.71 10.9,4.8 19.97,16.96 21.63,28.99 0.9,6.52 -1.02,16.24 -4.34,22 -3.83,6.65 -12.55,13.96 -18.89,15.84 -5.7,1.69 -15.45,1.99 -19.96,0.61 -4.29,-1.3 -11.19,-5.08 -14.7,-8.03 -7.6,-6.4 -12.64,-20.06 -11.46,-31.08 1.93,-18.02 15.08,-30.63 31.83,-31.11 z m -7.07,9.06 c -0.66,-0.14 -1.39,0.07 -2.48,0.57 -2.14,0.97 -2.49,1.71 -1.96,4.14 0.46,2.08 -0.01,3.84 -1.59,5.97 -3.2,4.33 -3.74,9.66 -1.42,14.15 2.39,4.67 7.31,6.59 14.83,5.8 6.82,-0.73 10.82,0.24 11.63,2.8 1.41,4.42 -4.04,8.47 -11.38,8.47 -2.65,0 -3.03,0.4 -3.03,3.14 0,3.97 1.3,4.74 7.52,4.46 3.68,-0.17 5.17,0.21 5.64,1.42 0.69,1.8 3.59,2.14 5.88,0.69 0.99,-0.63 1.22,-1.94 0.73,-4.19 -0.56,-2.52 -0.15,-4.06 1.75,-6.62 3.84,-5.2 3.43,-11.76 -1.02,-16.21 -3.37,-3.37 -3.77,-3.49 -12.26,-3.49 -9.42,0 -11.44,-0.64 -11.44,-3.63 0,-2.78 3.42,-5.43 7.95,-6.17 4.38,-0.71 5.41,-2.18 4.39,-6.26 -0.64,-2.53 -1,-2.67 -5.21,-2.04 -3.71,0.55 -4.86,0.29 -6.46,-1.47 -0.82,-0.9 -1.41,-1.39 -2.07,-1.53 z m -47.13,47.23 c 7.41,0 10.9,8.64 5.53,13.68 -5.24,4.92 -13.53,1.24 -13.53,-6.02 0,-4.55 3.25,-7.66 8,-7.66 z"
       transform="translate(-4.8855784e-6)" />
    <path
       id="path2"
       class="s1"
       d="m 725.54,-1.95 c -26.63,0.8 -52.41,12.17 -71.56,32.64 -29.85,31.92 -36.48,80.2 -16.4,119.36 4.25,8.28 4.25,8.28 1.36,10.03 -21.08,12.83 -31.91,24.24 -40.22,42.36 -11.27,24.6 -8.67,56.26 6.5,79.1 19.86,29.93 61.21,51.43 107.53,55.92 10.94,1.06 32.67,0.52 47.02,-1.18 16.1,-1.89 44.84,-9.84 57.78,-15.98 10.12,-4.79 13.42,-12.33 9.5,-21.7 -1.4,-3.34 -1.35,-3.76 0.68,-5.56 2.68,-2.38 6.11,-9.6 6.14,-12.93 0.03,-3.61 -3.83,-10.51 -7.33,-13.11 -2.17,-1.6 -3.28,-3.55 -3.77,-6.58 -0.48,-3.04 -1.91,-5.55 -4.79,-8.42 -3.53,-3.53 -4.76,-4.11 -8.84,-4.11 -2.6,0 -8.77,1.21 -13.7,2.69 -4.94,1.48 -9.58,2.45 -10.32,2.17 -0.79,-0.31 -1.35,-2.36 -1.35,-4.96 0,-8.79 -7.4,-15.69 -15.63,-14.58 -2.31,0.31 -7.06,2.05 -10.55,3.88 -26.17,13.67 -25.51,13.44 -38.53,13.83 -14.31,0.42 -24.31,-1.72 -38.12,-8.2 -11.52,-5.4 -16.8,-9.07 -25.43,-17.7 -3.84,-3.84 -7.75,-6.99 -8.69,-6.99 -2.44,0 -5.96,3.88 -5.96,6.56 0,3.3 15.09,17.77 24.06,23.08 19.25,11.38 43.9,17.56 60.74,15.22 9.73,-1.35 18.3,-4.74 30.91,-12.21 11.31,-6.7 12.22,-7.06 14.67,-5.8 3.35,1.72 2.29,6.44 -2.49,11.06 -6.1,5.92 -6.83,7.54 -4.76,10.69 2.57,3.93 7.06,3.36 30.4,-3.88 12.95,-4.01 16.82,-4.1 17.75,-0.38 0.38,1.51 0.27,3.17 -0.26,3.7 -0.52,0.52 -8.03,3.36 -16.68,6.31 -23,7.84 -23.16,7.92 -23.16,11.51 0,3.64 1.71,5.6 4.9,5.6 1.29,0 10.84,-2.91 21.23,-6.46 10.38,-3.55 19.91,-6.31 21.17,-6.13 2.94,0.41 3.62,4.6 1.18,7.29 -1,1.11 -10.49,4.9 -21.29,8.5 -11.09,3.69 -20.28,7.37 -21.33,8.53 -1.24,1.38 -1.63,2.93 -1.17,4.74 1.19,4.77 4.91,4.62 21.49,-0.87 8.31,-2.74 15.87,-4.69 16.82,-4.33 3.04,1.17 3.32,4.75 0.57,7.4 -2.43,2.33 -21.98,9.3 -35.57,12.68 -23.09,5.72 -57.02,6.99 -79.46,2.96 -53.39,-9.58 -91.11,-40.46 -95.83,-78.43 -3.03,-24.38 6.68,-49.14 25.17,-64.2 5.76,-4.69 17.05,-11.13 19.51,-11.13 0.64,0 4.17,3.05 7.84,6.77 7.68,7.79 20.34,16.67 30.1,21.09 14.31,6.49 39.43,11.7 41.36,8.59 0.4,-0.65 -0.49,-3.57 -1.97,-6.5 -2.36,-4.64 -3.21,-5.4 -6.71,-5.97 -20.55,-3.35 -35.25,-9.95 -49.98,-22.46 -12.08,-10.26 -23.59,-29.34 -28.27,-46.84 -3.44,-12.88 -3.28,-32.75 0.38,-46.47 7.11,-26.65 23.29,-46.28 48.66,-59.04 11.96,-6.02 21.85,-8.25 36.94,-8.3 15.3,-0.06 23.79,1.73 36.51,7.69 25.34,11.88 43.43,33.35 50.56,60.02 3.05,11.4 3.72,30.01 1.52,41.69 -0.98,5.19 -1.6,9.64 -1.36,9.87 0.77,0.78 12,-4.67 13.59,-6.58 2.52,-3.03 2.18,-34.83 -0.47,-45.27 C 819.22,43.31 793.86,14.74 761.82,3.62 749.91,-0.51 737.64,-2.32 725.54,-1.95 Z m -33.09,77.77 q -1.52,0.08 -3.12,0.52 c -4.72,1.31 -7.93,6.23 -7.94,12.15 0,5.14 2.28,8.73 6.8,10.7 4.25,1.85 5.29,1.85 9.62,0.04 4.72,-1.97 7.04,-5.51 7.04,-10.74 -0.01,-7.92 -5.35,-13.08 -12.4,-12.67 z m 69.99,0.37 c -12.06,0 -15.87,17.44 -4.99,22.81 4.28,2.11 6.43,2.13 10.35,0.1 10.69,-5.52 6.62,-22.91 -5.36,-22.91 z m -65.56,42.14 q -1.39,-0.02 -2.71,0.53 c -4.5,1.86 -5.96,6.31 -3.67,11.13 3.12,6.58 12.89,13.8 23.41,17.29 2.83,0.94 8.31,1.31 16.19,1.09 11.26,-0.3 12.36,-0.54 19.82,-4.23 9.64,-4.76 17.85,-12.89 17.85,-17.66 0,-4.4 -3.03,-7.74 -7.13,-7.85 -2.47,-0.07 -4.77,1.05 -8.53,4.18 -9.04,7.53 -11.27,8.31 -23.8,8.31 -12.25,0 -16.9,-1.56 -22.39,-7.47 q -4.88,-5.25 -9.04,-5.32 z"
       transform="translate(-4.8855784e-6)"
       inkscape:export-filename="text.svg"
       inkscape:export-xdpi="96"
       inkscape:export-ydpi="96" />
  </g>
</svg>
