<svg version="1.2" xmlns="http://www.w3.org/2000/svg" viewBox="0 0 86 85" width="1024" height="1012"><style>.a{fill:#a8cbfe}.b{fill:#15344f}</style><path class="a" d="m10.3 15.1c-0.6 0.1-1 0.8-2.1 2.3-4.6 6.2-7 12.9-8 22.1l-0.2 1.3 3.5 0.1c1.9 0 3.6 0.1 3.7 0 0.1 0 0.2-0.7 0.3-1.6 0.8-6.9 2.7-12.1 6.4-17.3l1.7-2.3-2.6-2.5c-1.5-1.4-2.2-2.1-2.7-2.1zm53.8 14.9q0 0-0.1 0c-0.6 0.6-1.7 3.5-2.4 6.3-1.3 5.9-2.4 8.1-5.2 11-3.4 3.5-6.8 4.8-11.6 4.6-3.1-0.2-5.4-1-7.9-2.7-2.5-1.9-4.9-5-5.6-7.4-0.4-1.2-0.4-1.2-1.5-1.2-1.4 0-1.4 0.1-0.5 2.5q1.5 4.1 4.8 7.5c2.9 3.1 5.8 4.8 9.3 5.8 1.5 0.4 2.5 0.5 4.4 0.4 7.4-0.3 13-5.4 15.3-13.6 0.6-2.5 1.1-7.1 0.9-9.5-0.1-1.1-0.1-2.4 0.1-2.9 0-0.3 0.2-0.8 0-0.8zm13.7 14v0.6c0 1.6-1.2 7.3-1.9 9.4-1 3-2.8 6.5-4.6 8.9-0.8 1.1-1.5 2.2-1.6 2.3 0 0.2 1 1.4 2.3 2.6 1.4 1.3 2.6 2.3 2.8 2.3 0.2 0 1-0.9 1.8-2 4.7-6.2 7.6-13.7 8.3-21.3 0.1-1.3 0.1-2.5 0.1-2.6-0.1-0.1-1.7-0.2-3.7-0.2zm-10.1 23.5l-1.9 1.6c-4.7 3.9-8.8 6.1-14.1 7.4-1.3 0.4-2.4 0.8-2.4 0.9 0 0.1 0.4 1.7 0.9 3.6l0.9 3.3 1.7-0.4c6-1.4 13.9-5.6 18.6-9.9l1.5-1.4-2.6-2.5z"/><path class="b" d="m42.6 0c-1.7 0-3.1 0.1-3.7 0.3-0.4 0.2-1 0.6-1.2 1-0.3 0.7-0.3 0.9 0 1.7 0.3 0.8 0.6 1 1.8 1.3 0.7 0.2 3.4 0.7 6 1 5.5 0.7 7.8 1.1 9.1 1.8 1.3 0.7 3.4 2.5 3.2 2.8-0.2 0.1-1.7-0.2-3.5-0.8-3.7-1.1-4.9-1.2-5.7-0.4-0.7 0.7-0.7 2.1 0.1 2.9 0.4 0.3 2.4 1.2 4.5 2 2.2 0.8 4.8 1.9 5.9 2.6 2.2 1.3 4.8 2.3 7.2 2.8 1.7 0.3 3 1.3 4.9 3.7 3.4 4.6 5.7 10.2 6.4 15.8l0.3 2.6 3.4 0.1h3.5v-0.7c0.2-1.3-0.4-5.8-1.1-9.1-1.6-7.1-4.8-13.5-9.5-18.8-4.2-4.9-10.1-9.1-15-10.8-2.8-0.9-11.5-1.8-16.6-1.8zm-8.9 1.1c-1.1 0-4.9 1.2-7.5 2.2-4.5 1.9-8.1 4.1-11.9 7.5l-2 1.7 2.5 2.4c1.3 1.4 2.5 2.5 2.6 2.5 0.2 0 0.9-0.6 1.8-1.3 4.2-3.8 10.9-7.3 15.7-8.1 0.6-0.1 1.1-0.2 1.1-0.2 0-0.3-1.8-6.6-2-6.7q0 0-0.3 0zm31.3 28.2c-0.7 0-1.2 1.7-1 4.2 0.2 2.7-0.3 7.2-0.9 9.7-1.8 6.6-5.7 11.1-11.3 13-2.4 0.8-6.5 0.8-9.1 0-5.6-1.8-10.8-6.8-13.2-12.6-1.2-2.9-1.2-3 0.7-3 2.5-0.1 2.6-0.2 0.9-1.9-2.3-2.3-7.2-6.5-7.5-6.5-0.2 0-4.6 5.9-6.7 8.8-0.6 0.9-0.6 0.9-0.1 0.9 0.5 0 3.3-0.5 4-0.7 0.4-0.1 0.6 0.3 1 1.6 1.3 4 3.6 7.7 6.9 11.1 4.4 4.5 9.1 7.2 14.5 8 2.3 0.4 6.6 0.1 8.8-0.5 7.4-2.1 13-8.5 14.8-17 0.9-4.3 0.5-11-0.8-13.9-0.3-0.8-0.7-1.2-1-1.2zm-64.9 14.7l0.2 2.5c0.6 8.5 3.3 16.1 7.9 22.7 2.1 2.9 6.5 7.4 9.3 9.4 6.2 4.4 10.3 5.7 20.1 6.3 4.6 0.2 8 0.1 9-0.3 1-0.5 1.4-1.6 0.9-2.5-0.6-1.4-1.5-1.7-7.6-2.4-6.5-0.8-7.8-1-9.3-1.7-1.2-0.6-3.6-2.9-3-2.9 0.3 0 1.9 0.4 3.7 0.9 1.8 0.5 3.6 0.9 3.9 0.9 1 0.1 1.9-0.9 1.9-2.1 0-1.6-0.6-2-4.9-3.4-2.2-0.7-4.6-1.7-5.7-2.3-2.1-1.3-4.3-2.2-7.3-3-2.6-0.6-3.2-1.1-5.6-4.3-3.1-4.2-5.3-9.7-6-15.3l-0.3-2.5h-3.6z"/></svg>